{
  "source": "C:\\Users\\Peter\\Desktop\\stuff\\MIUN\\quantitative_research\\video_compression\\videos\\HEVC_CLASS_B\\Kimono_1920x1080_24.y4m",
  "output": "C:\\Users\\Peter\\Desktop\\stuff\\MIUN\\quantitative_research\\video_compression\\compressed_videos\\HEVC_CLASS_B\\av1\\1.5\\Kimono_1920x1080_24_av1.mkv",
  "codec": "av1",
  "ok": "Input #0, yuv4mpegpipe, from 'C:\\Users\\Peter\\Desktop\\stuff\\MIUN\\quantitative_research\\video_compression\\videos\\HEVC_CLASS_B\\Kimono_1920x1080_24.y4m':\n  Duration: 00:00:10.00, start: 0.000000, bitrate: 597198 kb/s\n  Stream #0:0: Video: rawvideo (I420 / 0x30323449), yuv420p(progressive), 1920x1080, 24 fps, 24 tbr, 24 tbn\n[out#0/matroska @ 0000020f6a0f8ec0] Codec AVOption b:a (set bitrate (in bits/s)) has not been used for any stream. The most likely reason is either wrong type (e.g. a video option with no video streams) or that it is a private option of some decoder which was not actually used for any stream.\nStream mapping:\n  Stream #0:0 -> #0:0 (rawvideo (native) -> av1 (libsvtav1))\nPress [q] to stop, [?] for help\nSvt[info]: -------------------------------------------\nSvt[info]: SVT [version]:\tSVT-AV1 Encoder Lib v3.1.0-19-g6ecfe8ec\nSvt[info]: SVT [build]  :\tGCC 15.2.0\t 64 bit\nSvt[info]: LIB Build date: Aug 17 2025 11:37:13\nSvt[info]: -------------------------------------------\n[libsvtav1 @ 0000020f6a0fc080] Specified chroma sample location center is unsupported on the AV1 bit stream level. Usage of a container that allows passing this information - such as Matroska - is recommended.\nSvt[info]: Level of Parallelism: 5\nSvt[info]: Number of PPCS 93\nSvt[info]: [asm level on system : up to avx2]\nSvt[info]: [asm level selected : up to avx2]\nSvt[info]: -------------------------------------------\nSvt[info]: SVT [config]: main profile\ttier (auto)\tlevel (auto)\nSvt[info]: SVT [config]: width / height / fps numerator / fps denominator \t\t: 1920 / 1080 / 24 / 1\nSvt[info]: SVT [config]: bit-depth / color format \t\t\t\t\t: 8 / YUV420\nSvt[info]: SVT [config]: preset / tune / pred struct \t\t\t\t\t: 4 / PSNR / random access\nSvt[info]: SVT [config]: gop size / mini-gop size / key-frame type \t\t\t: 161 / 16 / key frame\nSvt[info]: SVT [config]: BRC mode / target bitrate (kbps)\t\t\t\t: VBR / 1500 \nSvt[info]: SVT [config]: AQ mode / Variance Boost \t\t\t\t\t: 2 / 0\nSvt[info]: SVT [config]: sharpness / luminance-based QP bias \t\t\t\t: 0 / 0\nSvt[info]: SVT [config]: QP scale compress strength \t\t\t\t\t: 0\nSvt[info]: -------------------------------------------\nOutput #0, matroska, to 'C:\\Users\\Peter\\Desktop\\stuff\\MIUN\\quantitative_research\\video_compression\\compressed_videos\\HEVC_CLASS_B\\av1\\1.5\\Kimono_1920x1080_24_av1.mkv':\n  Metadata:\n    encoder         : Lavf62.3.100\n  Stream #0:0: Video: av1 (AV01 / 0x31305641), yuv420p(tv, progressive), 1920x1080, q=2-31, 1500 kb/s, 24 fps, 1k tbn\n    Metadata:\n      encoder         : Lavc62.11.100 libsvtav1\n    Side data:\n      cpb: bitrate max/min/avg: 0/0/1500000 buffer size: 1500000 vbv_delay: N/A\nframe=    0 fps=0.0 q=0.0 size=       0KiB time=N/A bitrate=N/A speed=N/A elapsed=0:00:04.29    \nframe=    0 fps=0.0 q=0.0 size=       0KiB time=N/A bitrate=N/A speed=N/A elapsed=0:00:05.23    \nframe=    0 fps=0.0 q=0.0 size=       0KiB time=N/A bitrate=N/A speed=N/A elapsed=0:00:08.10    \nframe=    0 fps=0.0 q=0.0 size=       0KiB time=N/A bitrate=N/A speed=N/A elapsed=0:00:08.92    \nframe=    0 fps=0.0 q=0.0 size=       0KiB time=N/A bitrate=N/A speed=N/A elapsed=0:00:09.68    \nframe=    0 fps=0.0 q=0.0 size=       0KiB time=N/A bitrate=N/A speed=N/A elapsed=0:00:10.41    \nframe=    0 fps=0.0 q=0.0 size=       0KiB time=N/A bitrate=N/A speed=N/A elapsed=0:00:11.10    \nframe=    0 fps=0.0 q=0.0 size=       0KiB time=N/A bitrate=N/A speed=N/A elapsed=0:00:11.86    \nframe=    0 fps=0.0 q=0.0 size=       0KiB time=N/A bitrate=N/A speed=N/A elapsed=0:00:12.75    \nframe=    0 fps=0.0 q=0.0 size=       0KiB time=N/A bitrate=N/A speed=N/A elapsed=0:00:13.26    \nframe=    0 fps=0.0 q=0.0 size=       0KiB time=N/A bitrate=N/A speed=N/A elapsed=0:00:13.77    \nframe=    0 fps=0.0 q=0.0 size=       0KiB time=N/A bitrate=N/A speed=N/A elapsed=0:00:14.29    \nframe=    1 fps=0.1 q=25.0 size=       1KiB time=00:00:00.00 bitrate=N/A speed=   0x elapsed=0:00:14.81    \nframe=    1 fps=0.1 q=25.0 size=       1KiB time=00:00:00.00 bitrate=N/A speed=   0x elapsed=0:00:15.32    \nframe=    1 fps=0.1 q=25.0 size=       1KiB time=00:00:00.00 bitrate=N/A speed=   0x elapsed=0:00:15.84    \nframe=    1 fps=0.1 q=25.0 size=       1KiB time=00:00:00.00 bitrate=N/A speed=   0x elapsed=0:00:16.35    \nframe=    1 fps=0.1 q=25.0 size=       1KiB time=00:00:00.00 bitrate=N/A speed=   0x elapsed=0:00:16.87    \nframe=    1 fps=0.1 q=25.0 size=       1KiB time=00:00:00.00 bitrate=N/A speed=   0x elapsed=0:00:17.39    \nframe=    1 fps=0.1 q=25.0 size=       1KiB time=00:00:00.00 bitrate=N/A speed=   0x elapsed=0:00:17.91    \nframe=    1 fps=0.1 q=25.0 size=       1KiB time=00:00:00.00 bitrate=N/A speed=   0x elapsed=0:00:18.42    \nframe=    1 fps=0.1 q=25.0 size=       1KiB time=00:00:00.00 bitrate=N/A speed=   0x elapsed=0:00:18.93    \nframe=    1 fps=0.1 q=25.0 size=       1KiB time=00:00:00.00 bitrate=N/A speed=   0x elapsed=0:00:19.45    \nframe=    1 fps=0.1 q=25.0 size=       1KiB time=00:00:00.00 bitrate=N/A speed=   0x elapsed=0:00:19.96    \nframe=    1 fps=0.0 q=25.0 size=       1KiB time=00:00:00.00 bitrate=N/A speed=   0x elapsed=0:00:20.49    \nframe=    1 fps=0.0 q=25.0 size=       1KiB time=00:00:00.00 bitrate=N/A speed=   0x elapsed=0:00:21.00    \nframe=    1 fps=0.0 q=25.0 size=       1KiB time=00:00:00.00 bitrate=N/A speed=   0x elapsed=0:00:21.52    \nframe=    4 fps=0.2 q=44.0 size=       1KiB time=00:00:00.12 bitrate=  36.0kbits/s speed=0.00567x elapsed=0:00:22.04    \nframe=    4 fps=0.2 q=44.0 size=       1KiB time=00:00:00.12 bitrate=  36.0kbits/s speed=0.00554x elapsed=0:00:22.55    \nframe=    5 fps=0.2 q=40.0 size=       1KiB time=00:00:00.16 bitrate=  27.0kbits/s speed=0.00722x elapsed=0:00:23.08    \nframe=    6 fps=0.3 q=44.0 size=       1KiB time=00:00:00.20 bitrate=  21.6kbits/s speed=0.00883x elapsed=0:00:23.59    \nframe=    7 fps=0.3 q=40.0 size=       1KiB time=00:00:00.25 bitrate=  18.0kbits/s speed=0.0104x elapsed=0:00:24.10    \nframe=    7 fps=0.3 q=40.0 size=       1KiB time=00:00:00.25 bitrate=  18.0kbits/s speed=0.0102x elapsed=0:00:24.61    \nframe=    8 fps=0.3 q=42.0 size=       1KiB time=00:00:00.29 bitrate=  15.4kbits/s speed=0.0116x elapsed=0:00:25.13    \nframe=    9 fps=0.4 q=37.0 size=       1KiB time=00:00:00.33 bitrate=  13.5kbits/s speed=0.013x elapsed=0:00:25.65    \nframe=   10 fps=0.4 q=40.0 size=       1KiB time=00:00:00.37 bitrate=  12.0kbits/s speed=0.0143x elapsed=0:00:26.17    \nframe=   11 fps=0.4 q=40.0 size=       1KiB time=00:00:00.41 bitrate=  10.8kbits/s speed=0.0155x elapsed=0:00:26.89    \nframe=   11 fps=0.4 q=40.0 size=       1KiB time=00:00:00.41 bitrate=  10.8kbits/s speed=0.0152x elapsed=0:00:27.47    \nframe=   12 fps=0.4 q=39.0 size=       1KiB time=00:00:00.45 bitrate=   9.8kbits/s speed=0.0163x elapsed=0:00:28.05    \nframe=   14 fps=0.5 q=41.0 size=       1KiB time=00:00:00.50 bitrate=   9.0kbits/s speed=0.0175x elapsed=0:00:28.62    \nframe=   16 fps=0.5 q=41.0 size=       1KiB time=00:00:00.62 bitrate=   7.2kbits/s speed=0.0214x elapsed=0:00:29.19    \nframe=   17 fps=0.6 q=28.0 size=       1KiB time=00:00:00.62 bitrate=   7.2kbits/s speed=0.021x elapsed=0:00:29.71    \nframe=   18 fps=0.6 q=42.0 size=       1KiB time=00:00:00.70 bitrate=   6.3kbits/s speed=0.0234x elapsed=0:00:30.32    \nframe=   19 fps=0.6 q=41.0 size=       1KiB time=00:00:00.75 bitrate=   6.0kbits/s speed=0.0243x elapsed=0:00:30.91    \nframe=   20 fps=0.6 q=42.0 size=       1KiB time=00:00:00.79 bitrate=   5.7kbits/s speed=0.0251x elapsed=0:00:31.49    \nframe=   21 fps=0.7 q=39.0 size=       1KiB time=00:00:00.83 bitrate=   5.4kbits/s speed=0.026x elapsed=0:00:32.06    \nframe=   22 fps=0.7 q=41.0 size=       1KiB time=00:00:00.87 bitrate=   5.1kbits/s speed=0.0268x elapsed=0:00:32.66    \nframe=   22 fps=0.7 q=41.0 size=       1KiB time=00:00:00.87 bitrate=   5.1kbits/s speed=0.0263x elapsed=0:00:33.25    \nframe=   23 fps=0.7 q=39.0 size=       1KiB time=00:00:00.91 bitrate=   4.9kbits/s speed=0.0271x elapsed=0:00:33.86    \nframe=   24 fps=0.7 q=41.0 size=       1KiB time=00:00:00.91 bitrate=   4.9kbits/s speed=0.0265x elapsed=0:00:34.57    \nframe=   24 fps=0.7 q=41.0 size=       1KiB time=00:00:00.95 bitrate=   4.7kbits/s speed=0.0272x elapsed=0:00:35.24    \nframe=   26 fps=0.7 q=42.0 size=       1KiB time=00:00:01.04 bitrate=   4.3kbits/s speed=0.0291x elapsed=0:00:35.76    \nframe=   27 fps=0.7 q=41.0 size=       1KiB time=00:00:01.08 bitrate=   4.2kbits/s speed=0.0299x elapsed=0:00:36.27    \nframe=   28 fps=0.8 q=41.0 size=       1KiB time=00:00:01.12 bitrate=   4.0kbits/s speed=0.0306x elapsed=0:00:36.79    \nframe=   29 fps=0.8 q=38.0 size=       1KiB time=00:00:01.16 bitrate=   3.9kbits/s speed=0.0313x elapsed=0:00:37.30    \nframe=   31 fps=0.8 q=41.0 size=       1KiB time=00:00:01.25 bitrate=   3.6kbits/s speed=0.033x elapsed=0:00:37.83    \nframe=   33 fps=0.9 q=26.0 size=       1KiB time=00:00:01.33 bitrate=   3.4kbits/s speed=0.0348x elapsed=0:00:38.33    \nframe=   34 fps=0.9 q=44.0 size=       1KiB time=00:00:01.37 bitrate=   3.3kbits/s speed=0.0354x elapsed=0:00:38.86    \nframe=   34 fps=0.9 q=44.0 size=       1KiB time=00:00:01.37 bitrate=   3.3kbits/s speed=0.0349x elapsed=0:00:39.37    \nframe=   35 fps=0.9 q=43.0 size=       1KiB time=00:00:01.41 bitrate=   3.2kbits/s speed=0.0355x elapsed=0:00:39.88    \nframe=   36 fps=0.9 q=36.0 size=       1KiB time=00:00:01.45 bitrate=   3.1kbits/s speed=0.0361x elapsed=0:00:40.40    \nframe=   37 fps=0.9 q=41.0 size=       1KiB time=00:00:01.50 bitrate=   3.0kbits/s speed=0.0367x elapsed=0:00:40.91    \nframe=   38 fps=0.9 q=42.0 size=       1KiB time=00:00:01.54 bitrate=   2.9kbits/s speed=0.0372x elapsed=0:00:41.43    \nframe=   38 fps=0.9 q=42.0 size=       1KiB time=00:00:01.54 bitrate=   2.9kbits/s speed=0.0367x elapsed=0:00:41.95    \nframe=   39 fps=0.9 q=39.0 size=       1KiB time=00:00:01.58 bitrate=   2.8kbits/s speed=0.0373x elapsed=0:00:42.47    \nframe=   39 fps=0.9 q=39.0 size=       1KiB time=00:00:01.58 bitrate=   2.8kbits/s speed=0.0368x elapsed=0:00:42.97    \nframe=   40 fps=0.9 q=42.0 size=       1KiB time=00:00:01.62 bitrate=   2.8kbits/s speed=0.0374x elapsed=0:00:43.49    \nframe=   42 fps=1.0 q=43.0 size=       1KiB time=00:00:01.70 bitrate=   2.6kbits/s speed=0.0388x elapsed=0:00:44.01    \nframe=   43 fps=1.0 q=41.0 size=       1KiB time=00:00:01.75 bitrate=   2.6kbits/s speed=0.0393x elapsed=0:00:44.52    \nframe=   43 fps=1.0 q=41.0 size=       1KiB time=00:00:01.75 bitrate=   2.6kbits/s speed=0.0388x elapsed=0:00:45.05    \nframe=   44 fps=1.0 q=43.0 size=       1KiB time=00:00:01.79 bitrate=   2.5kbits/s speed=0.0393x elapsed=0:00:45.56    \nframe=   45 fps=1.0 q=38.0 size=       1KiB time=00:00:01.83 bitrate=   2.5kbits/s speed=0.0398x elapsed=0:00:46.07    \nframe=   45 fps=1.0 q=38.0 size=       1KiB time=00:00:01.83 bitrate=   2.5kbits/s speed=0.0394x elapsed=0:00:46.58    \nframe=   47 fps=1.0 q=41.0 size=       1KiB time=00:00:01.91 bitrate=   2.3kbits/s speed=0.0407x elapsed=0:00:47.11    \nframe=   48 fps=1.0 q=43.0 size=       1KiB time=00:00:01.95 bitrate=   2.3kbits/s speed=0.0411x elapsed=0:00:47.61    \nframe=   49 fps=1.0 q=26.0 size=       1KiB time=00:00:02.00 bitrate=   2.2kbits/s speed=0.0416x elapsed=0:00:48.13    \nframe=   50 fps=1.0 q=44.0 size=       1KiB time=00:00:02.04 bitrate=   2.2kbits/s speed=0.042x elapsed=0:00:48.65    \nframe=   51 fps=1.0 q=43.0 size=       1KiB time=00:00:02.08 bitrate=   2.2kbits/s speed=0.0424x elapsed=0:00:49.17    \nframe=   51 fps=1.0 q=43.0 size=       1KiB time=00:00:02.08 bitrate=   2.2kbits/s speed=0.0419x elapsed=0:00:49.68    \nframe=   53 fps=1.1 q=41.0 size=       1KiB time=00:00:02.16 bitrate=   2.1kbits/s speed=0.0432x elapsed=0:00:50.20    \nframe=   53 fps=1.0 q=41.0 size=       1KiB time=00:00:02.16 bitrate=   2.1kbits/s speed=0.0427x elapsed=0:00:50.71    \nframe=   54 fps=1.1 q=42.0 size=       1KiB time=00:00:02.20 bitrate=   2.0kbits/s speed=0.0431x elapsed=0:00:51.23    \nframe=   54 fps=1.0 q=42.0 size=       1KiB time=00:00:02.20 bitrate=   2.0kbits/s speed=0.0427x elapsed=0:00:51.75    \nframe=   55 fps=1.1 q=39.0 size=       1KiB time=00:00:02.25 bitrate=   2.0kbits/s speed=0.043x elapsed=0:00:52.27    \nframe=   55 fps=1.0 q=39.0 size=       1KiB time=00:00:02.25 bitrate=   2.0kbits/s speed=0.0426x elapsed=0:00:52.78    \nframe=   56 fps=1.1 q=42.0 size=       1KiB time=00:00:02.29 bitrate=   2.0kbits/s speed=0.043x elapsed=0:00:53.29    \nframe=   58 fps=1.1 q=43.0 size=       1KiB time=00:00:02.37 bitrate=   1.9kbits/s speed=0.0441x elapsed=0:00:53.81    \nframe=   59 fps=1.1 q=41.0 size=       1KiB time=00:00:02.41 bitrate=   1.9kbits/s speed=0.0445x elapsed=0:00:54.32    \nframe=   59 fps=1.1 q=41.0 size=       1KiB time=00:00:02.41 bitrate=   1.9kbits/s speed=0.0441x elapsed=0:00:54.84    \nframe=   60 fps=1.1 q=43.0 size=       1KiB time=00:00:02.45 bitrate=   1.8kbits/s speed=0.0444x elapsed=0:00:55.35    \nframe=   60 fps=1.1 q=43.0 size=       1KiB time=00:00:02.45 bitrate=   1.8kbits/s speed=0.044x elapsed=0:00:55.86    \nframe=   62 fps=1.1 q=43.0 size=       1KiB time=00:00:02.54 bitrate=   1.8kbits/s speed=0.0451x elapsed=0:00:56.39    \nframe=   63 fps=1.1 q=41.0 size=       1KiB time=00:00:02.58 bitrate=   1.7kbits/s speed=0.0454x elapsed=0:00:56.90    \nframe=   65 fps=1.1 q=27.0 size=       1KiB time=00:00:02.66 bitrate=   1.7kbits/s speed=0.0464x elapsed=0:00:57.50    \nframe=   65 fps=1.1 q=27.0 size=       1KiB time=00:00:02.66 bitrate=   1.7kbits/s speed=0.0459x elapsed=0:00:58.04    \nframe=   66 fps=1.1 q=44.0 size=       1KiB time=00:00:02.70 bitrate=   1.7kbits/s speed=0.0462x elapsed=0:00:58.66    \nframe=   67 fps=1.1 q=43.0 size=       1KiB time=00:00:02.75 bitrate=   1.6kbits/s speed=0.0465x elapsed=0:00:59.18    \nframe=   67 fps=1.1 q=43.0 size=       1KiB time=00:00:02.75 bitrate=   1.6kbits/s speed=0.046x elapsed=0:00:59.72    \nframe=   67 fps=1.1 q=43.0 size=       1KiB time=00:00:02.75 bitrate=   1.6kbits/s speed=0.0456x elapsed=0:01:00.24    \nframe=   67 fps=1.1 q=43.0 size=       1KiB time=00:00:02.75 bitrate=   1.6kbits/s speed=0.0453x elapsed=0:01:00.76    \nframe=   68 fps=1.1 q=44.0 size=       1KiB time=00:00:02.79 bitrate=   1.6kbits/s speed=0.0455x elapsed=0:01:01.29    \nframe=   68 fps=1.1 q=44.0 size=       1KiB time=00:00:02.79 bitrate=   1.6kbits/s speed=0.0452x elapsed=0:01:01.81    \nframe=   68 fps=1.1 q=44.0 size=       1KiB time=00:00:02.79 bitrate=   1.6kbits/s speed=0.0448x elapsed=0:01:02.32    \nframe=   69 fps=1.1 q=41.0 size=       1KiB time=00:00:02.83 bitrate=   1.6kbits/s speed=0.0451x elapsed=0:01:02.85    \nframe=   69 fps=1.1 q=41.0 size=       1KiB time=00:00:02.83 bitrate=   1.6kbits/s speed=0.0447x elapsed=0:01:03.36    \nframe=   70 fps=1.1 q=44.0 size=       1KiB time=00:00:02.87 bitrate=   1.6kbits/s speed=0.045x elapsed=0:01:03.90    \nframe=   70 fps=1.1 q=44.0 size=       1KiB time=00:00:02.87 bitrate=   1.6kbits/s speed=0.0446x elapsed=0:01:04.41    \nframe=   70 fps=1.1 q=44.0 size=       1KiB time=00:00:02.87 bitrate=   1.6kbits/s speed=0.0443x elapsed=0:01:04.93    \nframe=   71 fps=1.1 q=43.0 size=       1KiB time=00:00:02.91 bitrate=   1.5kbits/s speed=0.0446x elapsed=0:01:05.44    \nframe=   71 fps=1.1 q=43.0 size=       1KiB time=00:00:02.91 bitrate=   1.5kbits/s speed=0.0442x elapsed=0:01:05.96    \nframe=   72 fps=1.1 q=44.0 size=       1KiB time=00:00:02.95 bitrate=   1.5kbits/s speed=0.0445x elapsed=0:01:06.48    \nframe=   74 fps=1.1 q=43.0 size=       1KiB time=00:00:03.04 bitrate=   1.5kbits/s speed=0.0454x elapsed=0:01:07.01    \nframe=   74 fps=1.1 q=43.0 size=       1KiB time=00:00:03.04 bitrate=   1.5kbits/s speed=0.045x elapsed=0:01:07.53    \nframe=   75 fps=1.1 q=41.0 size=       1KiB time=00:00:03.08 bitrate=   1.5kbits/s speed=0.0453x elapsed=0:01:08.04    \nframe=   75 fps=1.1 q=41.0 size=       1KiB time=00:00:03.08 bitrate=   1.5kbits/s speed=0.045x elapsed=0:01:08.55    \nframe=   76 fps=1.1 q=44.0 size=       1KiB time=00:00:03.12 bitrate=   1.4kbits/s speed=0.0452x elapsed=0:01:09.06    \nframe=   77 fps=1.1 q=38.0 size=       1KiB time=00:00:03.16 bitrate=   1.4kbits/s speed=0.0455x elapsed=0:01:09.59    \nframe=   79 fps=1.1 q=41.0 size=       1KiB time=00:00:03.25 bitrate=   1.4kbits/s speed=0.0464x elapsed=0:01:10.10    \nframe=   80 fps=1.1 q=45.0 size=       1KiB time=00:00:03.29 bitrate=   1.4kbits/s speed=0.0466x elapsed=0:01:10.61    \nframe=   80 fps=1.1 q=45.0 size=       1KiB time=00:00:03.29 bitrate=   1.4kbits/s speed=0.0463x elapsed=0:01:11.13    \nframe=   81 fps=1.1 q=27.0 size=       1KiB time=00:00:03.29 bitrate=   1.4kbits/s speed=0.0459x elapsed=0:01:11.65    \nframe=   81 fps=1.1 q=27.0 size=       1KiB time=00:00:03.33 bitrate=   1.3kbits/s speed=0.0462x elapsed=0:01:12.16    \nframe=   82 fps=1.1 q=45.0 size=       1KiB time=00:00:03.33 bitrate=   1.3kbits/s speed=0.0459x elapsed=0:01:12.68    \nframe=   82 fps=1.1 q=45.0 size=       1KiB time=00:00:03.37 bitrate=   1.3kbits/s speed=0.0461x elapsed=0:01:13.21    \nframe=   82 fps=1.1 q=45.0 size=       1KiB time=00:00:03.37 bitrate=   1.3kbits/s speed=0.0458x elapsed=0:01:13.75    \nframe=   83 fps=1.1 q=43.0 size=       1KiB time=00:00:03.41 bitrate=   1.3kbits/s speed=0.046x elapsed=0:01:14.28    \nframe=   83 fps=1.1 q=43.0 size=       1KiB time=00:00:03.41 bitrate=   1.3kbits/s speed=0.0457x elapsed=0:01:14.81    \nframe=   83 fps=1.1 q=43.0 size=       1KiB time=00:00:03.41 bitrate=   1.3kbits/s speed=0.0454x elapsed=0:01:15.31    \nframe=   84 fps=1.1 q=45.0 size=       1KiB time=00:00:03.45 bitrate=   1.3kbits/s speed=0.0456x elapsed=0:01:15.83    \nframe=   84 fps=1.1 q=45.0 size=       1KiB time=00:00:03.45 bitrate=   1.3kbits/s speed=0.0453x elapsed=0:01:16.38    \nframe=   85 fps=1.1 q=41.0 size=       1KiB time=00:00:03.50 bitrate=   1.3kbits/s speed=0.0455x elapsed=0:01:16.89    \nframe=   86 fps=1.1 q=45.0 size=       1KiB time=00:00:03.54 bitrate=   1.3kbits/s speed=0.0457x elapsed=0:01:17.41    \nframe=   86 fps=1.1 q=45.0 size=       1KiB time=00:00:03.54 bitrate=   1.3kbits/s speed=0.0454x elapsed=0:01:17.93    \nframe=   86 fps=1.1 q=45.0 size=       1KiB time=00:00:03.54 bitrate=   1.3kbits/s speed=0.0451x elapsed=0:01:18.46    \nframe=   87 fps=1.1 q=43.0 size=       1KiB time=00:00:03.58 bitrate=   1.3kbits/s speed=0.0454x elapsed=0:01:18.98    \nframe=   87 fps=1.1 q=43.0 size=       1KiB time=00:00:03.58 bitrate=   1.3kbits/s speed=0.0451x elapsed=0:01:19.51    \nframe=   87 fps=1.1 q=43.0 size=       1KiB time=00:00:03.58 bitrate=   1.3kbits/s speed=0.0448x elapsed=0:01:20.04    \nframe=   88 fps=1.1 q=45.0 size=       1KiB time=00:00:03.62 bitrate=   1.2kbits/s speed=0.045x elapsed=0:01:20.56    \nframe=   90 fps=1.1 q=45.0 size=       1KiB time=00:00:03.70 bitrate=   1.2kbits/s speed=0.0457x elapsed=0:01:21.09    \nframe=   91 fps=1.1 q=42.0 size=       1KiB time=00:00:03.75 bitrate=   1.2kbits/s speed=0.046x elapsed=0:01:21.60    \nframe=   91 fps=1.1 q=42.0 size=       1KiB time=00:00:03.75 bitrate=   1.2kbits/s speed=0.0457x elapsed=0:01:22.14    \nframe=   91 fps=1.1 q=42.0 size=       1KiB time=00:00:03.75 bitrate=   1.2kbits/s speed=0.0454x elapsed=0:01:22.66    \nframe=   92 fps=1.1 q=45.0 size=       1KiB time=00:00:03.79 bitrate=   1.2kbits/s speed=0.0456x elapsed=0:01:23.17    \nframe=   92 fps=1.1 q=45.0 size=       1KiB time=00:00:03.79 bitrate=   1.2kbits/s speed=0.0453x elapsed=0:01:23.71    \nframe=   93 fps=1.1 q=38.0 size=       1KiB time=00:00:03.83 bitrate=   1.2kbits/s speed=0.0455x elapsed=0:01:24.24    \nframe=   95 fps=1.1 q=41.0 size=       1KiB time=00:00:03.91 bitrate=   1.1kbits/s speed=0.0462x elapsed=0:01:24.76    \nframe=   95 fps=1.1 q=41.0 size=       1KiB time=00:00:03.91 bitrate=   1.1kbits/s speed=0.0459x elapsed=0:01:25.30    \nframe=   96 fps=1.1 q=45.0 size=       1KiB time=00:00:03.95 bitrate=   1.1kbits/s speed=0.0461x elapsed=0:01:25.89    \nframe=   97 fps=1.1 q=27.0 size=       1KiB time=00:00:04.00 bitrate=   1.1kbits/s speed=0.0463x elapsed=0:01:26.47    \nframe=   98 fps=1.1 q=45.0 size=       1KiB time=00:00:04.04 bitrate=   1.1kbits/s speed=0.0464x elapsed=0:01:27.05    \nframe=   99 fps=1.1 q=43.0 size=       1KiB time=00:00:04.08 bitrate=   1.1kbits/s speed=0.0466x elapsed=0:01:27.63    \nframe=   99 fps=1.1 q=43.0 size=       1KiB time=00:00:04.08 bitrate=   1.1kbits/s speed=0.0463x elapsed=0:01:28.23    \nframe=   99 fps=1.1 q=43.0 size=       1KiB time=00:00:04.08 bitrate=   1.1kbits/s speed=0.046x elapsed=0:01:28.84    \nframe=  100 fps=1.1 q=45.0 size=       1KiB time=00:00:04.12 bitrate=   1.1kbits/s speed=0.0461x elapsed=0:01:29.38    \nframe=  101 fps=1.1 q=41.0 size=       1KiB time=00:00:04.12 bitrate=   1.1kbits/s speed=0.0459x elapsed=0:01:29.95    \nframe=  101 fps=1.1 q=41.0 size=       1KiB time=00:00:04.16 bitrate=   1.1kbits/s speed=0.046x elapsed=0:01:30.56    \nframe=  102 fps=1.1 q=45.0 size=       1KiB time=00:00:04.20 bitrate=   1.1kbits/s speed=0.0462x elapsed=0:01:31.14    \nframe=  102 fps=1.1 q=45.0 size=       1KiB time=00:00:04.20 bitrate=   1.1kbits/s speed=0.0459x elapsed=0:01:31.71    \nframe=  102 fps=1.1 q=45.0 size=       1KiB time=00:00:04.20 bitrate=   1.1kbits/s speed=0.0456x elapsed=0:01:32.27    \nframe=  103 fps=1.1 q=40.0 size=       1KiB time=00:00:04.25 bitrate=   1.1kbits/s speed=0.0458x elapsed=0:01:32.85    \nframe=  103 fps=1.1 q=40.0 size=       1KiB time=00:00:04.25 bitrate=   1.1kbits/s speed=0.0455x elapsed=0:01:33.43    \nframe=  104 fps=1.1 q=45.0 size=       1KiB time=00:00:04.25 bitrate=   1.1kbits/s speed=0.0452x elapsed=0:01:34.01    \nframe=  105 fps=1.1 q=37.0 size=       1KiB time=00:00:04.29 bitrate=   1.0kbits/s speed=0.0454x elapsed=0:01:34.58    \nframe=  106 fps=1.1 q=45.0 size=       1KiB time=00:00:04.37 bitrate=   1.0kbits/s speed=0.046x elapsed=0:01:35.17    \nframe=  107 fps=1.1 q=42.0 size=       1KiB time=00:00:04.41 bitrate=   1.0kbits/s speed=0.0461x elapsed=0:01:35.75    \nframe=  107 fps=1.1 q=42.0 size=       1KiB time=00:00:04.41 bitrate=   1.0kbits/s speed=0.0458x elapsed=0:01:36.33    \nframe=  108 fps=1.1 q=47.0 size=       1KiB time=00:00:04.45 bitrate=   1.0kbits/s speed=0.046x elapsed=0:01:36.89    \nframe=  109 fps=1.1 q=39.0 size=       1KiB time=00:00:04.50 bitrate=   1.0kbits/s speed=0.0462x elapsed=0:01:37.49    \nframe=  110 fps=1.1 q=47.0 size=       1KiB time=00:00:04.54 bitrate=   1.0kbits/s speed=0.0463x elapsed=0:01:38.07    \nframe=  111 fps=1.1 q=43.0 size=       1KiB time=00:00:04.58 bitrate=   1.0kbits/s speed=0.0465x elapsed=0:01:38.66    \nframe=  111 fps=1.1 q=43.0 size=       1KiB time=00:00:04.58 bitrate=   1.0kbits/s speed=0.0462x elapsed=0:01:39.23    \nframe=  111 fps=1.1 q=43.0 size=       1KiB time=00:00:04.58 bitrate=   1.0kbits/s speed=0.0459x elapsed=0:01:39.81    \nframe=  112 fps=1.1 q=47.0 size=       1KiB time=00:00:04.62 bitrate=   1.0kbits/s speed=0.0461x elapsed=0:01:40.39    \nframe=  113 fps=1.1 q=28.0 size=       1KiB time=00:00:04.66 bitrate=   1.0kbits/s speed=0.0462x elapsed=0:01:40.96    \nframe=  115 fps=1.1 q=45.0 size=       1KiB time=00:00:04.75 bitrate=   0.9kbits/s speed=0.0468x elapsed=0:01:41.52    \nframe=  115 fps=1.1 q=45.0 size=       1KiB time=00:00:04.75 bitrate=   0.9kbits/s speed=0.0465x elapsed=0:01:42.09    \nframe=  116 fps=1.1 q=47.0 size=       1KiB time=00:00:04.79 bitrate=   0.9kbits/s speed=0.0467x elapsed=0:01:42.65    \nframe=  117 fps=1.1 q=43.0 size=       1KiB time=00:00:04.83 bitrate=   0.9kbits/s speed=0.0468x elapsed=0:01:43.20    \nframe=  118 fps=1.1 q=47.0 size=       1KiB time=00:00:04.87 bitrate=   0.9kbits/s speed=0.047x elapsed=0:01:43.76    \nframe=  118 fps=1.1 q=47.0 size=       1KiB time=00:00:04.87 bitrate=   0.9kbits/s speed=0.0467x elapsed=0:01:44.32    \nframe=  118 fps=1.1 q=47.0 size=       1KiB time=00:00:04.87 bitrate=   0.9kbits/s speed=0.0465x elapsed=0:01:44.89    \nframe=  119 fps=1.1 q=41.0 size=       1KiB time=00:00:04.91 bitrate=   0.9kbits/s speed=0.0466x elapsed=0:01:45.48    \nframe=  119 fps=1.1 q=41.0 size=       1KiB time=00:00:04.91 bitrate=   0.9kbits/s speed=0.0464x elapsed=0:01:46.05    \nframe=  119 fps=1.1 q=41.0 size=       1KiB time=00:00:04.91 bitrate=   0.9kbits/s speed=0.0461x elapsed=0:01:46.63    \nframe=  120 fps=1.1 q=47.0 size=       1KiB time=00:00:04.95 bitrate=   0.9kbits/s speed=0.0462x elapsed=0:01:47.22    \nframe=  121 fps=1.1 q=38.0 size=       1KiB time=00:00:05.00 bitrate=   0.9kbits/s speed=0.0464x elapsed=0:01:47.82    \nframe=  122 fps=1.1 q=46.0 size=       1KiB time=00:00:05.04 bitrate=   0.9kbits/s speed=0.0465x elapsed=0:01:48.41    \nframe=  123 fps=1.1 q=44.0 size=    1024KiB time=00:00:05.08 bitrate=1650.2kbits/s speed=0.0466x elapsed=0:01:48.98    \nframe=  123 fps=1.1 q=44.0 size=    1024KiB time=00:00:05.08 bitrate=1650.2kbits/s speed=0.0464x elapsed=0:01:49.58    \nframe=  124 fps=1.1 q=45.0 size=    1024KiB time=00:00:05.12 bitrate=1636.8kbits/s speed=0.0465x elapsed=0:01:50.17    \nframe=  125 fps=1.1 q=40.0 size=    1024KiB time=00:00:05.16 bitrate=1623.6kbits/s speed=0.0466x elapsed=0:01:50.76    \nframe=  127 fps=1.1 q=43.0 size=    1024KiB time=00:00:05.25 bitrate=1597.8kbits/s speed=0.0471x elapsed=0:01:51.55    \nframe=  131 fps=1.2 q=45.0 size=    1024KiB time=00:00:05.37 bitrate=1560.7kbits/s speed=0.0478x elapsed=0:01:52.46    \nframe=  131 fps=1.2 q=45.0 size=    1024KiB time=00:00:05.41 bitrate=1548.7kbits/s speed=0.0479x elapsed=0:01:53.10    \nframe=  133 fps=1.2 q=43.0 size=    1024KiB time=00:00:05.50 bitrate=1525.2kbits/s speed=0.0484x elapsed=0:01:53.62    \nframe=  134 fps=1.2 q=47.0 size=    1024KiB time=00:00:05.54 bitrate=1513.7kbits/s speed=0.0485x elapsed=0:01:54.14    \nframe=  134 fps=1.2 q=47.0 size=    1024KiB time=00:00:05.54 bitrate=1513.7kbits/s speed=0.0483x elapsed=0:01:54.65    \nframe=  135 fps=1.2 q=42.0 size=    1024KiB time=00:00:05.58 bitrate=1502.4kbits/s speed=0.0485x elapsed=0:01:55.16    \nframe=  136 fps=1.2 q=47.0 size=    1024KiB time=00:00:05.62 bitrate=1491.3kbits/s speed=0.0486x elapsed=0:01:55.68    \nframe=  137 fps=1.2 q=39.0 size=    1024KiB time=00:00:05.66 bitrate=1480.3kbits/s speed=0.0488x elapsed=0:01:56.20    \nframe=  138 fps=1.2 q=47.0 size=    1024KiB time=00:00:05.70 bitrate=1469.5kbits/s speed=0.0489x elapsed=0:01:56.72    \nframe=  138 fps=1.2 q=47.0 size=    1024KiB time=00:00:05.70 bitrate=1469.5kbits/s speed=0.0487x elapsed=0:01:57.23    \nframe=  139 fps=1.2 q=44.0 size=    1024KiB time=00:00:05.75 bitrate=1458.9kbits/s speed=0.0488x elapsed=0:01:57.74    \nframe=  140 fps=1.2 q=47.0 size=    1024KiB time=00:00:05.79 bitrate=1448.4kbits/s speed=0.049x elapsed=0:01:58.26    \nframe=  142 fps=1.2 q=44.0 size=    1024KiB time=00:00:05.87 bitrate=1427.8kbits/s speed=0.0495x elapsed=0:01:58.78    \nframe=  145 fps=1.2 q=25.0 size=    1024KiB time=00:00:06.00 bitrate=1398.1kbits/s speed=0.0503x elapsed=0:01:59.29    \nframe=  145 fps=1.2 q=25.0 size=    1024KiB time=00:00:06.00 bitrate=1398.1kbits/s speed=0.0501x elapsed=0:01:59.80    \nframe=  147 fps=1.2 q=43.0 size=    1024KiB time=00:00:06.08 bitrate=1378.9kbits/s speed=0.0506x elapsed=0:02:00.32    \nframe=  149 fps=1.2 q=39.0 size=    1024KiB time=00:00:06.16 bitrate=1360.3kbits/s speed=0.051x elapsed=0:02:00.83    \nframe=  149 fps=1.2 q=39.0 size=    1024KiB time=00:00:06.16 bitrate=1360.3kbits/s speed=0.0508x elapsed=0:02:01.36    \nframe=  151 fps=1.2 q=36.0 size=    1024KiB time=00:00:06.25 bitrate=1342.2kbits/s speed=0.0513x elapsed=0:02:01.86    \nframe=  153 fps=1.3 q=41.0 size=    1024KiB time=00:00:06.33 bitrate=1324.5kbits/s speed=0.0517x elapsed=0:02:02.38    \nframe=  153 fps=1.2 q=41.0 size=    1024KiB time=00:00:06.33 bitrate=1324.5kbits/s speed=0.0515x elapsed=0:02:02.90    \nframe=  153 fps=1.2 q=41.0 size=    1024KiB time=00:00:06.33 bitrate=1324.5kbits/s speed=0.0513x elapsed=0:02:03.41    \nframe=  157 fps=1.3 q=40.0 size=    1024KiB time=00:00:06.50 bitrate=1290.6kbits/s speed=0.0524x elapsed=0:02:03.93    \nframe=  159 fps=1.3 q=42.0 size=    1024KiB time=00:00:06.58 bitrate=1274.2kbits/s speed=0.0529x elapsed=0:02:04.44    \nframe=  174 fps=1.4 q=40.0 size=    1024KiB time=00:00:07.20 bitrate=1163.7kbits/s speed=0.0577x elapsed=0:02:04.97    \nframe=  178 fps=1.4 q=26.0 size=    1024KiB time=00:00:07.37 bitrate=1137.4kbits/s speed=0.0588x elapsed=0:02:05.47    \nframe=  178 fps=1.4 q=26.0 size=    1024KiB time=00:00:07.37 bitrate=1137.4kbits/s speed=0.0585x elapsed=0:02:05.99    \nframe=  178 fps=1.4 q=26.0 size=    1024KiB time=00:00:07.37 bitrate=1137.4kbits/s speed=0.0583x elapsed=0:02:06.51    \nframe=  178 fps=1.4 q=26.0 size=    1024KiB time=00:00:07.37 bitrate=1137.4kbits/s speed=0.0581x elapsed=0:02:07.02    \nframe=  178 fps=1.4 q=26.0 size=    1024KiB time=00:00:07.37 bitrate=1137.4kbits/s speed=0.0578x elapsed=0:02:07.54    \nframe=  178 fps=1.4 q=26.0 size=    1024KiB time=00:00:07.37 bitrate=1137.4kbits/s speed=0.0576x elapsed=0:02:08.06    \nframe=  178 fps=1.4 q=26.0 size=    1024KiB time=00:00:07.37 bitrate=1137.4kbits/s speed=0.0574x elapsed=0:02:08.57    \nframe=  180 fps=1.4 q=41.0 size=    1024KiB time=00:00:07.45 bitrate=1124.7kbits/s speed=0.0578x elapsed=0:02:09.09    \nframe=  182 fps=1.4 q=38.0 size=    1024KiB time=00:00:07.54 bitrate=1112.3kbits/s speed=0.0582x elapsed=0:02:09.60    \nframe=  184 fps=1.4 q=41.0 size=    1024KiB time=00:00:07.62 bitrate=1100.1kbits/s speed=0.0586x elapsed=0:02:10.12    \nframe=  186 fps=1.4 q=33.0 size=    1024KiB time=00:00:07.70 bitrate=1088.3kbits/s speed=0.059x elapsed=0:02:10.64    \nframe=  186 fps=1.4 q=33.0 size=    1024KiB time=00:00:07.70 bitrate=1088.3kbits/s speed=0.0588x elapsed=0:02:11.15    \nframe=  186 fps=1.4 q=33.0 size=    1024KiB time=00:00:07.70 bitrate=1088.3kbits/s speed=0.0585x elapsed=0:02:11.67    \nframe=  186 fps=1.4 q=33.0 size=    1024KiB time=00:00:07.70 bitrate=1088.3kbits/s speed=0.0583x elapsed=0:02:12.18    \nframe=  188 fps=1.4 q=41.0 size=    1024KiB time=00:00:07.79 bitrate=1076.6kbits/s speed=0.0587x elapsed=0:02:12.69    \nframe=  190 fps=1.4 q=38.0 size=    1024KiB time=00:00:07.87 bitrate=1065.2kbits/s speed=0.0591x elapsed=0:02:13.22    \nframe=  190 fps=1.4 q=38.0 size=    1024KiB time=00:00:07.87 bitrate=1065.2kbits/s speed=0.0589x elapsed=0:02:13.73    \nframe=  192 fps=1.4 q=32.0 size=    1024KiB time=00:00:07.95 bitrate=1054.1kbits/s speed=0.0593x elapsed=0:02:14.25    \nframe=  194 fps=1.4 q=22.0 size=    1024KiB time=00:00:08.04 bitrate=1043.1kbits/s speed=0.0597x elapsed=0:02:14.76    \nframe=  198 fps=1.5 q=37.0 size=    1024KiB time=00:00:08.20 bitrate=1022.0kbits/s speed=0.0607x elapsed=0:02:15.28    \nframe=  202 fps=1.5 q=32.0 size=    1024KiB time=00:00:08.37 bitrate=1001.6kbits/s speed=0.0617x elapsed=0:02:15.79    \nframe=  202 fps=1.5 q=32.0 size=    1024KiB time=00:00:08.37 bitrate=1001.6kbits/s speed=0.0614x elapsed=0:02:16.30    \nframe=  202 fps=1.5 q=32.0 size=    1024KiB time=00:00:08.37 bitrate=1001.6kbits/s speed=0.0612x elapsed=0:02:16.82    \nframe=  202 fps=1.5 q=32.0 size=    1024KiB time=00:00:08.37 bitrate=1001.6kbits/s speed=0.061x elapsed=0:02:17.34    \nframe=  204 fps=1.5 q=40.0 size=    1024KiB time=00:00:08.45 bitrate= 991.8kbits/s speed=0.0614x elapsed=0:02:17.85    \nframe=  206 fps=1.5 q=37.0 size=    1024KiB time=00:00:08.54 bitrate= 982.1kbits/s speed=0.0617x elapsed=0:02:18.37    \nframe=  208 fps=1.5 q=40.0 size=    1024KiB time=00:00:08.62 bitrate= 972.6kbits/s speed=0.0621x elapsed=0:02:18.88    \nframe=  210 fps=1.5 q=21.0 size=    1024KiB time=00:00:08.70 bitrate= 963.3kbits/s speed=0.0625x elapsed=0:02:19.39    \nframe=  210 fps=1.5 q=21.0 size=    1024KiB time=00:00:08.70 bitrate= 963.3kbits/s speed=0.0622x elapsed=0:02:19.91    \nframe=  210 fps=1.5 q=21.0 size=    1024KiB time=00:00:08.70 bitrate= 963.3kbits/s speed=0.062x elapsed=0:02:20.43    \nframe=  210 fps=1.5 q=21.0 size=    1024KiB time=00:00:08.70 bitrate= 963.3kbits/s speed=0.0618x elapsed=0:02:20.94    \nframe=  210 fps=1.5 q=21.0 size=    1024KiB time=00:00:08.70 bitrate= 963.3kbits/s speed=0.0616x elapsed=0:02:21.46    \nframe=  210 fps=1.5 q=21.0 size=    1024KiB time=00:00:08.70 bitrate= 963.3kbits/s speed=0.0613x elapsed=0:02:21.98    \nframe=  212 fps=1.5 q=40.0 size=    1024KiB time=00:00:08.79 bitrate= 954.2kbits/s speed=0.0617x elapsed=0:02:22.49    \nframe=  216 fps=1.5 q=40.0 size=    1024KiB time=00:00:08.95 bitrate= 936.4kbits/s speed=0.0626x elapsed=0:02:23.00    \nframe=  218 fps=1.5 q=31.0 size=    1024KiB time=00:00:09.04 bitrate= 927.8kbits/s speed=0.063x elapsed=0:02:23.52    \nframe=  218 fps=1.5 q=31.0 size=    1024KiB time=00:00:09.04 bitrate= 927.8kbits/s speed=0.0628x elapsed=0:02:24.04    \nframe=  222 fps=1.5 q=37.0 size=    1024KiB time=00:00:09.20 bitrate= 911.0kbits/s speed=0.0637x elapsed=0:02:24.56    \nframe=  224 fps=1.5 q=40.0 size=    1024KiB time=00:00:09.29 bitrate= 902.8kbits/s speed=0.064x elapsed=0:02:25.07    \nframe=  232 fps=1.6 q=38.0 size=    1024KiB time=00:00:09.62 bitrate= 871.5kbits/s speed=0.0661x elapsed=0:02:25.59    \nframe=  238 fps=1.6 q=29.0 size=    1024KiB time=00:00:09.87 bitrate= 849.5kbits/s speed=0.0676x elapsed=0:02:26.10    \n[out#0/matroska @ 0000020f6a0f8ec0] video:1651KiB audio:0KiB subtitle:0KiB other streams:0KiB global headers:0KiB muxing overhead: 0.104408%\nframe=  240 fps=1.6 q=36.0 Lsize=    1653KiB time=00:00:09.95 bitrate=1359.5kbits/s speed=0.0681x elapsed=0:02:26.30    \n",
  "seconds": 149.710431098938,
  "probe_out": {}
}